Night Of The Creeps 1986 Bluray 720p DTS x264 dxva-FraMeSToR

Release Group: FraMeSToR
Container: MKV
Format: x264
Resolution: 720p
Source Media: Blu-Ray
Audio Format: DTS
Audio Channels: 6
Audio Bitrate: 1510

Austin Chef Reviews NIGHT OF THE CREEPS (1986) See Link Below For Review




IMDB info http://akas.imdb.com/title/tt0091630/


Title:  Night of the Creeps 
Year:  1986 
Tagline:  "The good news is your dates are here. The bad news is... they're dead." 
imdb Link:  http://akas.imdb.com/title/tt0091630 
Director:  Fred Dekker 
 
Producer:  Bill Finnegan executive producer (as William Finnegan)
Charles Gordon producer 
Donna Smith associate producer 
 
Writer:  Fred Dekker (written by)
 
Runtime:  88 
Genre(s):  Comedy, Horror, Sci-Fi, Thriller 
MPAA Rating:  Finland K-18 Germany 16 Iceland 16 Belgium 16 Netherlands 16 Chile 18 Portugal M/16 Australia M UK 18 USA R West Germany 18 Norway (Banned) 

 
IMDB Rating:  6.7 with votes 
Plot Summary:  Alien brain parasites, entering humans through the mouth, turn their host into a killing zombie. Some teenagers start to fight against them.  



Cast
Actor Role 
Jason Lively Chris 
Steve Marshall J.C. 
Jill Whitlow Cynthia 
Tom Atkins Ray Cameron 
Wally Taylor Detective Landis 
Bruce Solomon Sgt. Raimi 
Vic Polizos Coroner 
Allan Kayser Brad (as Allan J. Kayser) 
Ken Heron Johnny 
Alice Cadogan Pam 
June Harris Karen 
David Paymer Young Scientist 
David Oliver Steve 
Evelyne Smith House Mother 
Ivan E. Roth Psycho Zombie 



Complete Name : G:\Downloads\Night.Of.The.Creeps.1986.Bluray.720p.DTS.x264.dxva-FraMeSToR\Night.Of.The.Creeps.1986.Bluray.720p.DTS.x264.dxva-FraMeSToR.mkv
Format : Matroska
File Size : 8.59 GiB
Duration : 1h 29mn
Overall bit rate : 13.7 Mbps
Encoded date : UTC 2011-02-24 13:55:58
Writing application : mkvmerge v3.2.0 ('Beginnings') built on Feb 17 2010 12:36:13
Writing library : libebml v0.7.9 + libmatroska v0.8.1

Video
ID : 1
Format : AVC
Format/Info : Advanced Video Codec
Format profile : High@L4.1
Format settings, CABAC : Yes
Format settings, ReFrames : 9 frames
Codec ID : V_MPEG4/ISO/AVC
Duration : 1h 29mn
Bit rate : 12.2 Mbps
Width: 1 280 pixels
Height: 688 pixels
Display aspect ratio : 1.860
Frame Rate: 23.976 fps
Color space : YUV
Chroma subsampling : 4:2:0
Bit depth : 8 bits
Scan Type : Progressive
Bits/(Pixel*Frame) : 0.577
Stream size : 7.47 GiB (87%)
Writing library : x264 core 114 r1913 5fd3dce
Encoding settings : cabac=1 / ref=9 / deblock=1:-2:-2 / analyse=0x3:0x113 / me=umh / subme=9 / psy=1 / psy_rd=1.00:0.00 / mixed_ref=1 / me_range=64 / chroma_me=1 / trellis=2 / 8x8dct=1 / cqm=0 / deadzone=21,11 / fast_pskip=1 / chroma_qp_offset=-2 / threads=12 / sliced_threads=0 / nr=0 / decimate=1 / interlaced=0 / constrained_intra=0 / bframes=8 /b_pyramid=2 / b_adapt=2 / b_bias=0 / direct=1 / weightb=1 / open_gop=0 / weightp=2 / keyint=250 / keyint_min=23 / scenecut=40 / intra_refresh=0 / rc_lookahead=40 / rc=2pass / mbtree=1 / bitrate=12174 / ratetol=1.0 / qcomp=0.70 / qpmin=10 / qpmax=51 / qpstep=4 / cplxblur=20.0 / qblur=0.5 / vbv_maxrate=38000 / vbv_bufsize=30000 / nal_hrd=none / ip_ratio=1.40 / aq=1:1.00
Language : English

Audio
ID : 2
Format : DTS
Format/Info : Digital Theater Systems
Codec ID : A_DTS
Duration : 1h 29mn
Bit rate mode : Constant
Bit Rate : 1 510 Kbps
Channel(s): 6 channels
Channel positions : Front: L C R, Side: L R, LFE
Sampling rate : 48.0 KHz
Bit depth : 24 bits
Compression mode : Lossy
Stream size : 971 MiB (11%)
Language : English

Text
ID : 3
Format : VobSub
Muxing mode : zlib
Codec ID : S_VOBSUB
Codec ID/Info : The same subtitle format used on DVDs
Language : efi

Menu & 16 Chapters
 
http://www.imagebam.com/image/67b1e8121081094 
http://www.imagebam.com/image/fd4151121081112 
http://www.imagebam.com/image/bffd50121081134 
http://www.imagebam.com/image/87b52a121081148 
http://www.imagebam.com/image/d5bb9d121081167 
http://www.imagebam.com/image/51f34a121081193